<svg width="18" height="17" viewBox="0 0 18 17" fill="none" xmlns="http://www.w3.org/2000/svg">
<path d="M4.55001 2.45001C4.56001 2.98001 4.37001 3.42001 4.00001 3.77001C3.63001 4.12001 3.14001 4.30001 2.53001 4.30001H2.51001C1.92001 4.30001 1.44001 4.12001 1.08001 3.77001C0.720009 3.42001 0.540009 2.98001 0.540009 2.45001C0.540009 1.92001 0.730006 1.47001 1.10001 1.12001C1.47001 0.770006 1.96001 0.600006 2.56001 0.600006C3.16001 0.600006 3.64001 0.770006 4.00001 1.12001C4.36001 1.48001 4.55001 1.92001 4.55001 2.45001ZM4.33001 5.76001V16.48H0.76001V5.76001H4.33001ZM17.17 10.34V16.49H13.61V10.75C13.61 9.99001 13.46 9.40001 13.17 8.97001C12.88 8.54001 12.42 8.33001 11.8 8.33001C11.35 8.33001 10.96 8.45001 10.66 8.70001C10.35 8.95001 10.12 9.26001 9.97001 9.63001C9.89001 9.85001 9.85001 10.14 9.85001 10.51V16.49H6.30001C6.31001 13.61 6.32001 11.28 6.32001 9.49001C6.32001 7.70001 6.32001 6.63001 6.31001 6.29001L6.30001 5.76001H9.86001V7.32001H9.84C9.98 7.09001 10.13 6.89001 10.28 6.71001C10.43 6.54001 10.64 6.35001 10.89 6.15001C11.15 5.95001 11.46 5.79001 11.83 5.68001C12.2 5.57001 12.61 5.51001 13.07 5.51001C14.3 5.51001 15.3 5.92001 16.05 6.74001C16.8 7.56001 17.17 8.76001 17.17 10.34Z" fill="#28A5DE"/>
</svg>
