<svg width="16" height="16" viewBox="0 0 16 16" fill="none" xmlns="http://www.w3.org/2000/svg">
<path d="M15.74 15.16C15.75 15.36 15.69 15.53 15.54 15.68C15.41 15.83 15.24 15.9 15.03 15.9H13.45C13.26 15.9 13.09 15.84 12.96 15.71C12.82 15.58 12.75 15.42 12.74 15.24C12.65 13.66 12.28 12.15 11.62 10.72C10.96 9.29 10.11 8.06 9.06 7.01C8.01 5.96 6.77 5.11 5.35 4.45C3.92 3.79 2.42 3.42 0.830002 3.32C0.650002 3.31 0.490001 3.24 0.360001 3.1C0.230001 2.96 0.169998 2.8 0.169998 2.62V1.05C0.169998 0.839996 0.239999 0.669996 0.389999 0.539996C0.519999 0.409996 0.679997 0.339996 0.879997 0.339996H0.910004C2.84 0.439996 4.69 0.879996 6.45 1.67C8.21 2.46 9.78 3.54 11.15 4.92C12.53 6.29 13.61 7.86 14.4 9.62C15.2 11.39 15.64 13.23 15.74 15.16ZM10.08 15.14C10.09 15.35 10.03 15.52 9.89 15.67C9.76 15.82 9.58 15.9 9.37 15.9H7.88C7.7 15.9 7.54 15.84 7.4 15.72C7.27 15.6 7.19 15.45 7.18 15.26C7.02 13.57 6.34 12.13 5.14 10.93C3.94 9.73 2.5 9.05 0.809998 8.89C0.629998 8.88 0.469998 8.8 0.349998 8.67C0.229998 8.54 0.169998 8.38 0.169998 8.19V6.71C0.169998 6.5 0.250002 6.32 0.400002 6.19C0.530002 6.06 0.679997 6 0.879997 6H0.940002C2.12 6.1 3.25 6.39 4.32 6.89C5.4 7.39 6.35 8.06 7.18 8.9C8.02 9.73 8.69 10.69 9.19 11.76C9.69 12.84 9.98 13.96 10.08 15.14ZM3.8 12.28C4.21 12.69 4.42 13.19 4.42 13.78C4.42 14.37 4.21 14.87 3.8 15.28C3.39 15.69 2.89 15.9 2.3 15.9C1.71 15.9 1.21 15.69 0.800003 15.28C0.390003 14.87 0.18 14.37 0.18 13.78C0.18 13.19 0.390003 12.69 0.800003 12.28C1.21 11.87 1.71 11.66 2.3 11.66C2.89 11.66 3.39 11.87 3.8 12.28Z" fill="#28A5DE"/>
</svg>
