<svg width="18" height="15" viewBox="0 0 18 15" fill="none" xmlns="http://www.w3.org/2000/svg">
<path d="M17.27 2.26C16.79 2.97001 16.2 3.57 15.52 4.07C15.53 4.17 15.53 4.32 15.53 4.52C15.53 5.46 15.39 6.39 15.12 7.33C14.85 8.26 14.43 9.16001 13.87 10.02C13.31 10.88 12.65 11.64 11.87 12.3C11.1 12.96 10.17 13.49 9.07999 13.88C7.98999 14.27 6.82999 14.47 5.57999 14.47C3.62999 14.47 1.83999 13.95 0.209991 12.9C0.459991 12.93 0.739992 12.94 1.04999 12.94C2.66999 12.94 4.11999 12.44 5.38999 11.45C4.62999 11.44 3.94999 11.2 3.35999 10.75C2.75999 10.3 2.34999 9.72001 2.12999 9.02001C2.36999 9.06001 2.58999 9.07 2.78999 9.07C3.09999 9.07 3.40999 9.03 3.70999 8.95C2.89999 8.78 2.22999 8.38 1.69999 7.74C1.16999 7.1 0.899994 6.36 0.899994 5.52V5.49C1.38999 5.76 1.91999 5.91 2.47999 5.93C1.99999 5.61 1.62999 5.2 1.33999 4.69C1.05999 4.18 0.919991 3.62 0.919991 3.02C0.919991 2.39 1.07999 1.8 1.39999 1.26C2.26999 2.34 3.33999 3.20001 4.58999 3.84C5.83999 4.49001 7.17999 4.84 8.60999 4.92C8.54999 4.65 8.51999 4.38 8.51999 4.12C8.51999 3.15 8.85999 2.33 9.53999 1.65C10.22 0.970005 11.05 0.630005 12.01 0.630005C13.02 0.630005 13.87 1 14.56 1.73C15.35 1.58 16.09 1.3 16.78 0.890005C16.51 1.72 16 2.36 15.24 2.82C15.93 2.73001 16.6 2.55 17.27 2.26Z" fill="#28A5DE"/>
</svg>
