<svg width="112" height="137" viewBox="0 0 112 137" fill="none" xmlns="http://www.w3.org/2000/svg">
<g style="mix-blend-mode:multiply">
<path d="M108.409 17.2659H73.6664L71.7348 31.0749C73.6664 30.8025 75.3168 30.8025 77.5298 30.8025C86.0817 30.8025 94.7649 32.7376 101.104 37.2936C107.865 41.8496 112 49.3083 112 59.8107C112 76.5224 97.6624 91.3083 73.5258 91.3083C62.6296 91.3083 53.5338 88.8189 48.564 86.198L52.2867 70.4539C56.2813 72.3891 64.4206 74.8784 72.5599 74.8784C81.2431 74.8784 90.4889 70.7357 90.4889 61.201C90.4889 51.948 83.1842 46.2835 65.2552 46.2835C60.2947 46.2835 56.8439 46.556 53.1212 47.1102L59.0476 0H108.409V17.2659Z" fill="#003660"/>
<path d="M63.5017 0.0109253V13.2751L26.5465 89.7974H4.35097L41.3061 17.5493V17.2768H0.206299V0.0109253H63.5017Z" fill="#007DB4"/>
<path d="M8.31748 114.211H5.6919V108.161L0 98.8797H2.8225L7.00469 105.85L11.1869 98.8797H14.0094L8.31748 108.151V114.211Z" fill="#003660"/>
<path d="M26.7059 98.8797V101.313H18.5384V105.371H25.8713V107.672H18.5384V111.777H26.9684V114.211H15.9597V98.8797H26.7059Z" fill="#003660"/>
<path d="M32.4352 110.725L30.9068 114.211H28.1499L34.892 98.8797H37.6489L44.391 114.211H41.6342L40.1057 110.725H32.4352ZM39.0461 108.33L36.2705 102.017L33.4948 108.33H39.0461Z" fill="#003660"/>
<path d="M58.7195 103.858C58.7195 106.385 57.613 107.982 55.4187 108.64L59.4227 114.211H56.1408L52.4837 109.053H49.0892V114.211H46.5105V98.8797H52.2024C54.5373 98.8797 56.2064 99.2743 57.2191 100.063C58.2225 100.852 58.7195 102.121 58.7195 103.858ZM55.2875 106.028C55.8126 105.578 56.0751 104.845 56.0751 103.849C56.0751 102.844 55.8032 102.158 55.2687 101.792C54.7248 101.416 53.7684 101.238 52.3806 101.238H49.0986V106.714H52.3149C53.7684 106.714 54.7623 106.479 55.2875 106.028Z" fill="#003660"/>
<path d="M67.0744 100.899C66.3242 100.899 65.7054 101.05 65.2271 101.36C64.7489 101.67 64.5051 102.13 64.5051 102.75C64.5051 103.37 64.7489 103.849 65.2271 104.178C65.7054 104.507 66.7368 104.864 68.3028 105.239C69.8688 105.615 71.0503 106.151 71.8474 106.836C72.6444 107.522 73.0382 108.537 73.0382 109.871C73.0382 111.204 72.5319 112.294 71.5285 113.13C70.5252 113.966 69.203 114.38 67.5714 114.38C65.1802 114.38 63.0516 113.553 61.2043 111.9L62.8266 109.946C64.3738 111.289 65.9773 111.965 67.637 111.965C68.4716 111.965 69.128 111.787 69.6156 111.43C70.1032 111.073 70.347 110.594 70.347 110.002C70.347 109.41 70.1126 108.95 69.6531 108.621C69.1936 108.292 68.406 107.992 67.2807 107.719C66.1555 107.447 65.3021 107.203 64.7208 106.977C64.1394 106.752 63.6236 106.451 63.1642 106.085C62.264 105.399 61.8045 104.347 61.8045 102.928C61.8045 101.51 62.3202 100.42 63.3517 99.65C64.3832 98.8797 65.6585 98.4946 67.1682 98.4946C68.1434 98.4946 69.1186 98.6543 70.0751 98.9737C71.0409 99.293 71.8661 99.7533 72.5694 100.336L71.191 102.29C70.7408 101.876 70.122 101.548 69.353 101.285C68.5841 101.031 67.8246 100.899 67.0744 100.899Z" fill="#003660"/>
<path d="M95.0368 112.097C93.4895 113.609 91.5766 114.37 89.298 114.37C87.0193 114.37 85.1064 113.609 83.5592 112.097C82.012 110.584 81.243 108.696 81.243 106.442C81.243 104.187 82.012 102.299 83.5592 100.787C85.1064 99.2743 87.0193 98.5134 89.298 98.5134C91.5766 98.5134 93.4895 99.2743 95.0368 100.787C96.584 102.299 97.3529 104.187 97.3529 106.442C97.3529 108.696 96.584 110.584 95.0368 112.097ZM93.1426 102.496C92.1017 101.416 90.8171 100.871 89.298 100.871C87.7789 100.871 86.5036 101.416 85.4534 102.496C84.4125 103.577 83.8874 104.892 83.8874 106.432C83.8874 107.973 84.4125 109.288 85.4534 110.368C86.4942 111.449 87.7789 111.994 89.298 111.994C90.8171 111.994 92.0923 111.449 93.1426 110.368C94.1834 109.288 94.7086 107.973 94.7086 106.432C94.7086 104.892 94.1834 103.586 93.1426 102.496Z" fill="#003660"/>
<path d="M103.195 101.294V105.502H109.984V107.888H103.195V114.201H100.616V98.8703H110.818L110.8 101.285H103.195V101.294Z" fill="#003660"/>
<path d="M8.00794 121.359C7.13587 121.359 6.42321 121.538 5.86059 121.895C5.29796 122.252 5.02603 122.787 5.02603 123.51C5.02603 124.234 5.30734 124.779 5.86059 125.164C6.42321 125.549 7.60473 125.953 9.42388 126.394C11.243 126.836 12.6121 127.456 13.5404 128.254C14.4594 129.053 14.9282 130.227 14.9282 131.777C14.9282 133.327 14.3469 134.586 13.1747 135.553C12.0026 136.521 10.4741 137 8.57995 137C5.80433 137 3.33815 136.042 1.1908 134.125L3.06621 131.862C4.85724 133.421 6.72328 134.201 8.65496 134.201C9.6208 134.201 10.3803 133.994 10.9523 133.581C11.515 133.167 11.8057 132.613 11.8057 131.927C11.8057 131.242 11.5431 130.706 11.0086 130.321C10.4741 129.936 9.55516 129.588 8.25175 129.278C6.94833 128.968 5.95436 128.677 5.27921 128.414C4.60406 128.151 4.00392 127.803 3.47881 127.381C2.42857 126.582 1.90345 125.361 1.90345 123.717C1.90345 122.073 2.50359 120.805 3.69448 119.913C4.88537 119.02 6.36695 118.579 8.12047 118.579C9.2551 118.579 10.3803 118.767 11.4962 119.142C12.6121 119.518 13.5779 120.044 14.3937 120.72L12.7903 122.984C12.2651 122.515 11.5525 122.12 10.6617 121.81C9.76146 121.51 8.88001 121.359 8.00794 121.359Z" fill="#003660"/>
<path d="M31.0942 119.02V121.838H21.6234V126.545H30.1284V129.213H21.6234V133.966H31.3943V136.784H18.6321V119.02H31.0942Z" fill="#003660"/>
<path d="M49.3983 124.788C49.3983 127.719 48.123 129.569 45.563 130.33L50.2047 136.793H46.3976L42.1592 130.819H38.2208V136.793H35.2295V119.02H41.831C44.5409 119.02 46.4726 119.48 47.6448 120.392C48.8075 121.303 49.3983 122.768 49.3983 124.788ZM45.413 127.306C46.0225 126.779 46.3226 125.934 46.3226 124.779C46.3226 123.623 46.0131 122.825 45.3849 122.393C44.7566 121.96 43.6407 121.744 42.0373 121.744H38.2302V128.104H41.9622C43.6501 128.095 44.8035 127.832 45.413 127.306Z" fill="#003660"/>
<path d="M61.5794 136.793H58.2318L51.0958 119.02H54.4434L59.9009 132.294L65.3584 119.02H68.706L61.5794 136.793Z" fill="#003660"/>
<path d="M71.2562 119.02H74.2475V136.793H71.2562V119.02Z" fill="#003660"/>
<path d="M87.2728 134.069C88.3043 134.069 89.1951 133.891 89.9359 133.543C90.6767 133.196 91.455 132.641 92.2708 131.88L94.2025 133.862C92.327 135.948 90.039 136.991 87.3572 136.991C84.6753 136.991 82.453 136.126 80.6807 134.398C78.9084 132.669 78.027 130.481 78.027 127.841C78.027 125.201 78.9272 122.994 80.7276 121.228C82.528 119.462 84.8066 118.579 87.5541 118.579C90.3016 118.579 92.599 119.593 94.4463 121.632L92.5427 123.717C91.6988 122.9 90.8923 122.336 90.1422 122.017C89.392 121.697 88.5012 121.538 87.4885 121.538C85.6974 121.538 84.1877 122.12 82.9687 123.276C81.7497 124.431 81.1402 125.925 81.1402 127.728C81.1402 129.532 81.7497 131.044 82.9593 132.256C84.1784 133.468 85.613 134.069 87.2728 134.069Z" fill="#003660"/>
<path d="M110.321 119.02V121.838H100.85V126.545H109.355V129.213H100.85V133.966H110.621V136.784H97.8496V119.02H110.321Z" fill="#003660"/>
</g>
</svg>
